
        <svg xmlns="http://www.w3.org/2000/svg" xmlns:xlink="http://www.w3.org/1999/xlink" version="1.1" width="3199.3355481727576" 
        height="931.8871998502516" viewBox="0 0 3199.3355481727576 931.8871998502516">
			
			<g transform="scale(9.966777408637874) translate(10, 10)">
				<defs id="SvgjsDefs6932"><linearGradient id="SvgjsLinearGradient6939"><stop id="SvgjsStop6940" stop-color="#147d6c" offset="0"></stop><stop id="SvgjsStop6941" stop-color="#1effff" offset="1"></stop></linearGradient></defs><g id="SvgjsG6933" featureKey="monogramFeature-0" transform="matrix(1.747488032616079,0,0,1.747488032616079,0.000003333068909866484,-31.349932905322845)" fill="url(#SvgjsLinearGradient6939)"><path d="M23.1 45.480000000000004 l3.42 -3.18 l19.26 17.7 l-20.7 0 l-15.72 -14.4 l24.36 -22.98 l-6.78 0 l-17.58 16.98 l0 -16.98 l-4.68 0 l0 32.7 l8.28 0 l5.16 4.68 l-18.12 0 l0 -42.06 l14.04 0 l0 10.32 l11.04 -10.32 l20.46 0 l-29.34 27.6 l10.68 9.78 l6.9 0 z"></path></g><g id="SvgjsG6934" featureKey="nameFeature-0" transform="matrix(1.602641169079976,0,0,1.602641169079976,96.28187603361717,-17.270108716152638)" fill="#f7fcfc"><path d="M2.32 40 l0 -28.6 l10.68 0 l0 9.76 l6.64 -9.76 l10.96 0 l-9.32 13 l9.84 15.6 l-12.2 0 l-5.92 -10.28 l0 10.28 l-10.68 0 z M34.278 40 l8.8 -28.6 l13.72 0 l8.76 28.6 l-11.36 0 l-0.96 -3.8 l-8.08 0 l-0.96 3.8 l-9.92 0 z M49.238 19.96 l-2.32 9.12 l4.56 0 z M77.756 40 l0 -12.12 l-9.2 -16.48 l11.52 0 l3.48 7.76 l3.6 -7.76 l10.12 0 l-8.8 16.44 l0 12.16 l-10.72 0 z M102.55399999999999 40 l0 -28.6 l12.32 0 c9.04 0 12.24 4.04 12.24 10.2 l0 0.16 c0 5.92 -3.76 9.6 -11.72 9.6 l-2.24 0 l0 8.64 l-10.6 0 z M113.154 24.32 l1.04 0 c1.92 0 2.88 -0.84 2.88 -2.52 l0 -0.16 c0 -1.64 -0.92 -2.36 -2.84 -2.36 l-1.08 0 l0 5.04 z"></path></g><g id="SvgjsG6935" featureKey="sloganFeature-0" transform="matrix(0.36782422563896944,0,0,0.36782422563896944,100.53654147920274,55.065244664343)" fill="#e7eded"><path d="M1.26 5.539999999999999 l0 -0.1 l4.26 0 l0 14.56 l-4.26 0 l0 -0.1 c0.6 -0.18 0.96 -1 0.96 -2.9 l0 -8.56 c0 -1.9 -0.36 -2.7 -0.96 -2.9 z M6.68 5.4399999999999995 c5.7 0.08 8.84 2.74 8.84 7.28 c0 4.5 -3.06 7.14 -8.84 7.28 l0 -0.14 c3.16 -0.12 5.36 -2 5.36 -7.14 c0 -5.26 -2.3 -7.08 -5.36 -7.12 l0 -0.16 z M22.6985 12.7 c0 -4.36 2.88 -7.14 6.86 -7.44 l0 0.14 c-2.04 0.36 -3.38 2.88 -3.38 7.3 c0 4.4 1.34 6.94 3.42 7.32 l0 0.14 c-4.02 -0.3 -6.9 -3.1 -6.9 -7.46 z M30.9985 20.02 c2.06 -0.38 3.42 -2.92 3.42 -7.32 c0 -4.42 -1.36 -6.94 -3.42 -7.3 l0 -0.14 c4 0.3 6.88 3.08 6.88 7.44 s-2.88 7.16 -6.88 7.46 l0 -0.14 z M45.077 12.719999999999999 c0 -4.38 3.04 -7.22 6.98 -7.46 l0 0.16 c-2.12 0.36 -3.5 2.84 -3.5 7.3 c0 4.42 1.38 6.92 3.5 7.3 l0 0.14 c-3.94 -0.24 -6.98 -3.1 -6.98 -7.44 z M53.456999999999994 5.42 l0 -0.16 c1.84 0.08 3.38 0.54 3.98 0.92 l0.08 3.84 l-0.08 0.02 c-1.18 -2.9 -2.44 -4.36 -3.98 -4.62 z M53.456999999999994 20.16 l0 -0.14 c1.84 -0.46 3.46 -2.26 4.46 -4.62 l0.08 0.02 l-0.42 3.88 c-0.86 0.44 -2.26 0.8 -4.12 0.86 z M65.19550000000001 5.539999999999999 l0 -0.1 l5.26 0 l0 0.1 c-0.64 0.2 -1 1 -1 2.9 l0 5.74 c0 3.86 0.76 5.48 2.56 5.82 l0 0.16 c-3.78 -0.22 -5.86 -2.12 -5.86 -5.98 l0 -5.74 c0 -1.9 -0.36 -2.7 -0.96 -2.9 z M73.25550000000001 20.16 l0 -0.16 c2.3 -0.38 3.74 -2.6 3.74 -5.98 l0 -4.98 c0 -2.1 -1.06 -3.38 -1.82 -3.5 l0 -0.08 l3.88 0 l0 0.08 c-0.58 0.1 -1.62 1.4 -1.62 3.5 l0 4.98 c0 3.44 -1.62 5.78 -4.18 6.14 z M85.79400000000001 5.4399999999999995 l4.54 0 l5.38 11.62 l-1.3 2.94 l-0.82 0 l-5.76 -12.24 c-0.46 -1.02 -1.16 -1.9 -2.04 -2.22 l0 -0.1 z M102.85400000000001 17.02 c0 1.88 0.36 2.7 0.98 2.88 l0 0.1 l-5.26 0 l0 -0.1 c0.62 -0.18 0.98 -1 0.98 -2.88 l0 -8.68 l-3 6.78 l-0.1 -0.22 l3.92 -9.46 l3.38 0 l0 0.1 c-0.56 0.18 -0.9 0.92 -0.9 2.94 l0 8.54 z M87.994 16.32 c0.04 2.38 0.72 3.22 1.9 3.58 l0 0.1 l-4.06 0 l0 -0.1 c1.04 -0.36 1.78 -1.2 1.8 -3.58 l0.08 -6.06 l0.16 0.28 z M111.97250000000001 5.539999999999999 l0 -0.1 l4.26 0 l0 14.56 l-4.26 0 l0 -0.1 c0.6 -0.18 0.96 -1 0.96 -2.9 l0 -8.56 c0 -1.9 -0.36 -2.7 -0.96 -2.9 z M122.47250000000001 9.58 c-0.94 -2.42 -2.2 -3.66 -4.26 -3.9 l-0.82 -0.08 l0 -0.16 l4.98 0 l0.18 4.1 z M118.2325 12.32 c1.7 -0.04 2.48 -0.72 2.86 -1.86 l0.1 0 l0 4.22 l-0.1 0 c-0.38 -1.28 -1.16 -2.12 -2.86 -2.16 l-0.76 -0.02 l0 -0.16 z M123.3125 15.82 l0.08 0.04 l-0.44 4.14 l-5.56 0 l0 -0.16 l1.22 -0.1 c1.8 -0.14 3.64 -1.74 4.7 -3.92 z M135.471 5.4399999999999995 l-4.68 0 l0 0.1 c0.88 0.42 1.5 1.06 3.4 3.56 l8.32 10.9 l0.98 0 l0 -4.12 z M143.11100000000002 9.12 l0.14 4.52 l0.16 0.22 l0.06 -4.74 c0.02 -2.38 0.72 -3.22 1.76 -3.58 l0 -0.1 l-4.08 0 l0 0.1 c1.2 0.36 1.9 1.2 1.96 3.58 z M133.01100000000002 16.32 l-0.14 -6.88 l-0.16 -0.22 l-0.08 7.1 c-0.04 2.4 -0.76 3.22 -1.8 3.58 l0 0.1 l4.04 0 l0 -0.1 c-1.16 -0.36 -1.8 -1.22 -1.86 -3.58 z M151.8695 9.54 l0.18 -4.1 l3.76 0 l0 0.16 l-0.26 0.04 c-1.76 0.26 -2.76 1.68 -3.58 3.94 z M160.3495 17 c0 1.9 0.38 2.72 1.06 2.9 l0 0.1 l-5.4 0 l0 -0.1 c0.66 -0.18 1.04 -1 1.04 -2.9 l0 -11.56 l3.3 0 l0 11.56 z M165.3495 5.4399999999999995 l0.18 4.1 l-0.08 0.04 c-0.82 -2.26 -1.84 -3.68 -3.6 -3.94 l-0.24 -0.04 l0 -0.16 l3.74 0 z M181.3065 9.54 l0.18 -4.1 l3.76 0 l0 0.16 l-0.26 0.04 c-1.76 0.26 -2.76 1.68 -3.58 3.94 z M189.78650000000002 17 c0 1.9 0.38 2.72 1.06 2.9 l0 0.1 l-5.4 0 l0 -0.1 c0.66 -0.18 1.04 -1 1.04 -2.9 l0 -11.56 l3.3 0 l0 11.56 z M194.78650000000002 5.4399999999999995 l0.18 4.1 l-0.08 0.04 c-0.82 -2.26 -1.84 -3.68 -3.6 -3.94 l-0.24 -0.04 l0 -0.16 l3.74 0 z M206.22500000000002 16.52 c0 2.38 0.36 3.18 1.16 3.38 l0 0.1 l-5.42 0 l0 -0.1 c0.6 -0.18 0.96 -1 0.96 -2.9 l0 -8.56 c0 -1.9 -0.36 -2.7 -0.96 -2.9 l0 -0.1 l4.26 0 l0 11.08 z M213.685 18.02 c0.62 1.28 1.02 1.76 1.4 1.88 l0 0.1 l-4.36 0 l-2.4 -6.7 c-0.26 0.02 -0.54 0.02 -0.82 0.02 l-0.06 -0.14 c1.54 -0.14 2.66 -1.24 2.66 -3.7 s-1.02 -3.7 -2.72 -3.88 l0 -0.16 c4.18 0.02 6.18 1.66 6.18 4.04 c0 2.1 -1.86 3.52 -4.9 3.8 l0 0.06 c0.96 0.38 2.04 0.7 3.2 0.98 z M233.86350000000002 16.740000000000002 c1.02 2.56 1.46 2.98 2.06 3.16 l0 0.1 l-6.12 0 l0 -0.1 c0.88 -0.26 1.28 -1.14 0.58 -2.98 l-0.72 -1.94 l-4.16 -0.1 l0.08 -0.14 l3.94 -0.1 l-2.66 -7.1 l0.86 -2.1 l1.72 0 z M223.58350000000002 16.6 c-0.72 1.94 0.14 3.08 1.44 3.3 l0 0.1 l-4.32 0 l0 -0.1 c0.74 -0.22 1.64 -1.36 2.34 -3.08 l3.24 -7.88 l0.06 0.24 z M242.702 5.539999999999999 l0 -0.1 l4.26 0 l0 14.56 l-4.26 0 l0 -0.1 c0.6 -0.18 0.96 -1 0.96 -2.9 l0 -8.56 c0 -1.9 -0.36 -2.7 -0.96 -2.9 z M248.122 5.4399999999999995 c5.7 0.08 8.84 2.74 8.84 7.28 c0 4.5 -3.06 7.14 -8.84 7.28 l0 -0.14 c3.16 -0.12 5.36 -2 5.36 -7.14 c0 -5.26 -2.3 -7.08 -5.36 -7.12 l0 -0.16 z M264.5805 5.539999999999999 l0 -0.1 l4.26 0 l0 14.56 l-4.26 0 l0 -0.1 c0.6 -0.18 0.96 -1 0.96 -2.9 l0 -8.56 c0 -1.9 -0.36 -2.7 -0.96 -2.9 z M275.0805 9.58 c-0.94 -2.42 -2.2 -3.66 -4.26 -3.9 l-0.82 -0.08 l0 -0.16 l4.98 0 l0.18 4.1 z M270.84049999999996 12.32 c1.7 -0.04 2.48 -0.72 2.86 -1.86 l0.1 0 l0 4.22 l-0.1 0 c-0.38 -1.28 -1.16 -2.12 -2.86 -2.16 l-0.76 -0.02 l0 -0.16 z M275.9205 15.82 l0.08 0.04 l-0.44 4.14 l-5.56 0 l0 -0.16 l1.22 -0.1 c1.8 -0.14 3.64 -1.74 4.7 -3.92 z M293.6375 5.539999999999999 l0 -0.1 l4.26 0 l0 14.56 l-4.26 0 l0 -0.1 c0.6 -0.18 0.96 -1 0.96 -2.9 l0 -8.56 c0 -1.9 -0.36 -2.7 -0.96 -2.9 z M299.0575 5.4399999999999995 c5.7 0.08 8.84 2.74 8.84 7.28 c0 4.5 -3.06 7.14 -8.84 7.28 l0 -0.14 c3.16 -0.12 5.36 -2 5.36 -7.14 c0 -5.26 -2.3 -7.08 -5.36 -7.12 l0 -0.16 z M319.77599999999995 17 c0 1.9 0.34 2.72 0.98 2.9 l0 0.1 l-5.24 0 l0 -0.1 c0.6 -0.18 0.96 -1 0.96 -2.9 l0 -8.56 c0 -1.9 -0.36 -2.7 -0.96 -2.9 l0 -0.1 l5.22 0 l0 0.1 c-0.64 0.2 -0.96 1 -0.96 2.9 l0 8.56 z M328.43449999999996 12.719999999999999 c0 -4.38 3.1 -7.22 7.3 -7.46 l0 0.16 c-2.3 0.32 -3.82 2.96 -3.82 7.3 c0 4.5 1.52 7.14 3.82 7.3 l0 0.14 c-4.18 -0.1 -7.3 -2.98 -7.3 -7.44 z M337.13449999999995 5.26 c1.8 0.08 3.74 0.56 4.3 0.92 l0.1 3.84 l-0.1 0.02 c-1.2 -2.9 -2.52 -4.38 -4.3 -4.62 l0 -0.16 z M337.13449999999995 20.16 l0 -0.14 c1.46 -0.3 2.14 -1.42 2.14 -3.78 c0 -2.02 -0.56 -2.78 -1.64 -2.94 l0 -0.08 l5.54 0 l0 0.08 c-0.6 0.2 -0.96 1.02 -0.96 2.94 c0 2.28 0.06 2.86 0.26 3.76 l-0.04 0.04 l-1.76 -0.8 c-0.66 0.36 -2.06 0.8 -3.54 0.92 z M354.99299999999994 17 c0 1.9 0.34 2.72 0.98 2.9 l0 0.1 l-5.24 0 l0 -0.1 c0.6 -0.18 0.96 -1 0.96 -2.9 l0 -8.56 c0 -1.9 -0.36 -2.7 -0.96 -2.9 l0 -0.1 l5.22 0 l0 0.1 c-0.64 0.2 -0.96 1 -0.96 2.9 l0 8.56 z M363.03149999999994 9.54 l0.18 -4.1 l3.76 0 l0 0.16 l-0.26 0.04 c-1.76 0.26 -2.76 1.68 -3.58 3.94 z M371.51149999999996 17 c0 1.9 0.38 2.72 1.06 2.9 l0 0.1 l-5.4 0 l0 -0.1 c0.66 -0.18 1.04 -1 1.04 -2.9 l0 -11.56 l3.3 0 l0 11.56 z M376.51149999999996 5.4399999999999995 l0.18 4.1 l-0.08 0.04 c-0.82 -2.26 -1.84 -3.68 -3.6 -3.94 l-0.24 -0.04 l0 -0.16 l3.74 0 z M395.53 16.740000000000002 c1.02 2.56 1.46 2.98 2.06 3.16 l0 0.1 l-6.12 0 l0 -0.1 c0.88 -0.26 1.28 -1.14 0.58 -2.98 l-0.72 -1.94 l-4.16 -0.1 l0.08 -0.14 l3.94 -0.1 l-2.66 -7.1 l0.86 -2.1 l1.72 0 z M385.24999999999994 16.6 c-0.72 1.94 0.14 3.08 1.44 3.3 l0 0.1 l-4.32 0 l0 -0.1 c0.74 -0.22 1.64 -1.36 2.34 -3.08 l3.24 -7.88 l0.06 0.24 z M404.3684999999999 5.539999999999999 l0 -0.1 l5.24 0 l0 0.1 c-0.64 0.2 -0.98 1 -0.98 2.9 l0 11.56 l-4.26 0 l0 -0.1 c0.6 -0.18 0.96 -1 0.96 -2.9 l0 -8.56 c0 -1.9 -0.36 -2.7 -0.96 -2.9 z M415.58849999999995 15.48 l0.08 0.04 l-0.54 4.48 l-5.34 0 l0 -0.16 l1.24 -0.08 c1.62 -0.1 3.48 -1.9 4.56 -4.28 z M426.7869999999999 17 c0 1.9 0.34 2.72 0.98 2.9 l0 0.1 l-5.24 0 l0 -0.1 c0.6 -0.18 0.96 -1 0.96 -2.9 l0 -8.56 c0 -1.9 -0.36 -2.7 -0.96 -2.9 l0 -0.1 l5.22 0 l0 0.1 c-0.64 0.2 -0.96 1 -0.96 2.9 l0 8.56 z M447.36549999999994 5.4399999999999995 l0.04 0.06 l-7.26 12.42 c-0.48 0.78 -0.64 1.38 -0.64 1.72 l0 0.36 l-4.18 0 l-0.04 -0.06 l8.48 -14.5 l3.6 0 z M442.3854999999999 5.6 l-0.62 0.04 c-2.72 0.22 -4.34 1.56 -5.72 5.2 l-0.08 -0.04 l0.46 -5.36 l6.06 0 z M440.7654999999999 19.86 l0.68 -0.06 c2.5 -0.22 4.62 -2.08 5.8 -5.2 l0.1 0.04 l-0.48 5.36 l-6.1 0 l0 -0.14 z M466.78399999999993 16.740000000000002 c1.02 2.56 1.46 2.98 2.06 3.16 l0 0.1 l-6.12 0 l0 -0.1 c0.88 -0.26 1.28 -1.14 0.58 -2.98 l-0.72 -1.94 l-4.16 -0.1 l0.08 -0.14 l3.94 -0.1 l-2.66 -7.1 l0.86 -2.1 l1.72 0 z M456.5039999999999 16.6 c-0.72 1.94 0.14 3.08 1.44 3.3 l0 0.1 l-4.32 0 l0 -0.1 c0.74 -0.22 1.64 -1.36 2.34 -3.08 l3.24 -7.88 l0.06 0.24 z M474.5624999999999 9.54 l0.18 -4.1 l3.76 0 l0 0.16 l-0.26 0.04 c-1.76 0.26 -2.76 1.68 -3.58 3.94 z M483.0424999999999 17 c0 1.9 0.38 2.72 1.06 2.9 l0 0.1 l-5.4 0 l0 -0.1 c0.66 -0.18 1.04 -1 1.04 -2.9 l0 -11.56 l3.3 0 l0 11.56 z M488.0424999999999 5.4399999999999995 l0.18 4.1 l-0.08 0.04 c-0.82 -2.26 -1.84 -3.68 -3.6 -3.94 l-0.24 -0.04 l0 -0.16 l3.74 0 z M499.4809999999999 17 c0 1.9 0.34 2.72 0.98 2.9 l0 0.1 l-5.24 0 l0 -0.1 c0.6 -0.18 0.96 -1 0.96 -2.9 l0 -8.56 c0 -1.9 -0.36 -2.7 -0.96 -2.9 l0 -0.1 l5.22 0 l0 0.1 c-0.64 0.2 -0.96 1 -0.96 2.9 l0 8.56 z M508.1394999999999 12.7 c0 -4.36 2.88 -7.14 6.86 -7.44 l0 0.14 c-2.04 0.36 -3.38 2.88 -3.38 7.3 c0 4.4 1.34 6.94 3.42 7.32 l0 0.14 c-4.02 -0.3 -6.9 -3.1 -6.9 -7.46 z M516.4394999999998 20.02 c2.06 -0.38 3.42 -2.92 3.42 -7.32 c0 -4.42 -1.36 -6.94 -3.42 -7.3 l0 -0.14 c4 0.3 6.88 3.08 6.88 7.44 s-2.88 7.16 -6.88 7.46 l0 -0.14 z M535.2379999999998 5.4399999999999995 l-4.68 0 l0 0.1 c0.88 0.42 1.5 1.06 3.4 3.56 l8.32 10.9 l0.98 0 l0 -4.12 z M542.8779999999998 9.12 l0.14 4.52 l0.16 0.22 l0.06 -4.74 c0.02 -2.38 0.72 -3.22 1.76 -3.58 l0 -0.1 l-4.08 0 l0 0.1 c1.2 0.36 1.9 1.2 1.96 3.58 z M532.7779999999999 16.32 l-0.14 -6.88 l-0.16 -0.22 l-0.08 7.1 c-0.04 2.4 -0.76 3.22 -1.8 3.58 l0 0.1 l4.04 0 l0 -0.1 c-1.16 -0.36 -1.8 -1.22 -1.86 -3.58 z"></path></g>
			</g>
		</svg>
	