<svg width="325" height="320" xmlns="http://www.w3.org/2000/svg" xmlns:xlink="http://www.w3.org/1999/xlink" xml:space="preserve" overflow="hidden"><defs><clipPath id="clip0"><rect x="63" y="215" width="325" height="320"/></clipPath><clipPath id="clip1"><rect x="65" y="216" width="323" height="319"/></clipPath><linearGradient x1="-2.12477e-14" y1="107.294" x2="273.797" y2="107.294" gradientUnits="userSpaceOnUse" spreadMethod="pad" id="fill2"><stop offset="0" stop-color="#147D6C"/><stop offset="1" stop-color="#1EFFFF"/></linearGradient></defs><g clip-path="url(#clip0)" transform="translate(-63 -215)"><g clip-path="url(#clip1)"><g><path d="M138.154 272.003 158.608 252.984 273.797 358.842 149.996 358.842 55.9794 272.72 201.669 135.284 161.12 135.284 55.9794 236.836 55.9794 135.284 27.9897 135.284 27.9897 330.853 77.51 330.853 108.37 358.842-2.12477e-14 358.842-2.12477e-14 107.294 83.9691 107.294 83.9691 169.015 149.996 107.294 272.361 107.294 96.8875 272.361 160.761 330.853 202.028 330.853Z" fill="url(#fill2)" transform="matrix(1.00139 0 0 1 99.718 143.148)"/><path d="M12.7251 219.399 12.7251 62.5287 71.3047 62.5287 71.3047 116.062 107.725 62.5287 167.84 62.5287 116.72 133.833 170.692 219.399 103.776 219.399 71.3047 163.013 71.3047 219.399 12.7251 219.399ZM188.014 219.399 236.282 62.5287 311.536 62.5287 359.584 219.399 297.275 219.399 292.009 198.556 247.691 198.556 242.425 219.399 188.014 219.399ZM270.069 109.48 257.344 159.503 282.356 159.503ZM426.49 219.399 426.49 152.921 376.028 62.5287 439.215 62.5287 458.303 105.092 478.048 62.5287 533.556 62.5287 485.289 152.702 485.289 219.399 426.49 219.399ZM562.506 219.399 562.506 62.5287 630.081 62.5287C679.665 62.5287 697.217 84.688 697.217 118.475L697.217 119.353C697.217 151.824 676.594 172.009 632.933 172.009L620.647 172.009 620.647 219.399 562.506 219.399ZM620.647 133.395 626.351 133.395C636.882 133.395 642.148 128.787 642.148 119.572L642.148 118.695C642.148 109.7 637.102 105.75 626.571 105.75L620.647 105.75 620.647 133.395Z" fill="#0F0F0F" transform="matrix(1.00139 0 0 1 429.698 194.758)"/><path d="M1.26893 5.57928 1.26893 5.47857 5.55914 5.47857 5.55914 20.1418 1.26893 20.1418 1.26893 20.0411C1.87319 19.8598 2.23574 19.034 2.23574 17.1205L2.23574 8.49985C2.23574 6.58637 1.87319 5.7807 1.26893 5.57928ZM6.72737 5.47857C12.4678 5.55914 15.6301 8.238 15.6301 12.8102 15.6301 17.3421 12.5484 20.0008 6.72737 20.1418L6.72737 20.0008C9.90977 19.88 12.1254 17.9866 12.1254 12.8102 12.1254 7.5129 9.80907 5.67999 6.72737 5.63971L6.72737 5.47857ZM22.8595 12.7901C22.8595 8.39914 25.7599 5.59943 29.7681 5.2973L29.7681 5.43829C27.7136 5.80084 26.3641 8.33871 26.3641 12.7901 26.3641 17.2213 27.7136 19.7793 29.8084 20.162L29.8084 20.303C25.7599 20.0008 22.8595 17.181 22.8595 12.7901ZM31.2183 20.162C33.2929 19.7793 34.6626 17.2213 34.6626 12.7901 34.6626 8.33871 33.2929 5.80084 31.2183 5.43829L31.2183 5.2973C35.2467 5.59943 38.1471 8.39914 38.1471 12.7901 38.1471 17.181 35.2467 20.0008 31.2183 20.303L31.2183 20.162ZM45.3966 12.8102C45.3966 8.39914 48.4582 5.539 52.4261 5.2973L52.4261 5.45843C50.2911 5.82099 48.9013 8.31857 48.9013 12.8102 48.9013 17.2615 50.2911 19.7793 52.4261 20.162L52.4261 20.303C48.4582 20.0613 45.3966 17.181 45.3966 12.8102ZM53.8361 5.45843 53.8361 5.2973C55.6891 5.37787 57.24 5.84113 57.8443 6.22382L57.9248 10.0911 57.8443 10.1112C56.6559 7.19063 55.387 5.72028 53.8361 5.45843ZM53.8361 20.303 53.8361 20.162C55.6891 19.6987 57.3206 17.8859 58.3277 15.5092L58.4083 15.5293 57.9853 19.4369C57.1192 19.88 55.7093 20.2425 53.8361 20.303ZM65.6578 5.57928 65.6578 5.47857 70.9551 5.47857 70.9551 5.57928C70.3106 5.7807 69.948 6.58637 69.948 8.49985L69.948 14.2806C69.948 18.1679 70.7134 19.7994 72.5262 20.1418L72.5262 20.303C68.7194 20.0814 66.6246 18.1679 66.6246 14.2806L66.6246 8.49985C66.6246 6.58637 66.2621 5.7807 65.6578 5.57928ZM73.7749 20.303 73.7749 20.1418C76.0913 19.7591 77.5415 17.5234 77.5415 14.1194L77.5415 9.1041C77.5415 6.98921 76.474 5.70013 75.7086 5.57928L75.7086 5.49872 79.6161 5.49872 79.6161 5.57928C79.032 5.67999 77.9846 6.98921 77.9846 9.1041L77.9846 14.1194C77.9846 17.5838 76.3531 19.9404 73.7749 20.303ZM86.4024 5.47857 90.9745 5.47857 96.3927 17.181 95.0835 20.1418 94.2577 20.1418 88.4568 7.81503C87.9936 6.78779 87.2886 5.90155 86.4024 5.57928L86.4024 5.47857ZM103.583 17.1407C103.583 19.034 103.946 19.8598 104.57 20.0411L104.57 20.1418 99.273 20.1418 99.273 20.0411C99.8974 19.8598 100.26 19.034 100.26 17.1407L100.26 8.39914 97.2387 15.2272 97.1379 15.0057 101.086 5.47857 104.49 5.47857 104.49 5.57928C103.926 5.76056 103.583 6.50581 103.583 8.54013L103.583 17.1407ZM88.618 16.4357C88.6582 18.8326 89.3431 19.6786 90.5314 20.0411L90.5314 20.1418 86.4426 20.1418 86.4426 20.0411C87.49 19.6786 88.2353 18.8326 88.2554 16.4357L88.336 10.3328 88.4971 10.6147ZM112.766 5.57928 112.766 5.47857 117.057 5.47857 117.057 20.1418 112.766 20.1418 112.766 20.0411C113.371 19.8598 113.733 19.034 113.733 17.1205L113.733 8.49985C113.733 6.58637 113.371 5.7807 112.766 5.57928ZM123.341 9.64793C122.394 7.21077 121.125 5.96198 119.051 5.72028L118.225 5.63971 118.225 5.47857 123.24 5.47857 123.422 9.60765ZM119.071 12.4074C120.783 12.3671 121.568 11.6823 121.951 10.5342L122.052 10.5342 122.052 14.7841 121.951 14.7841C121.568 13.495 120.783 12.6491 119.071 12.6088L118.305 12.5886 118.305 12.4275ZM124.187 15.9322 124.267 15.9725 123.824 20.1418 118.225 20.1418 118.225 19.9807 119.454 19.88C121.266 19.739 123.119 18.1276 124.187 15.9322ZM136.432 5.47857 131.718 5.47857 131.718 5.57928C132.605 6.00226 133.229 6.6468 135.143 9.16453L143.522 20.1418 144.508 20.1418 144.508 15.9926ZM144.126 9.18467 144.267 13.7367 144.428 13.9583 144.488 9.18467C144.508 6.78779 145.213 5.94184 146.261 5.57928L146.261 5.47857 142.152 5.47857 142.152 5.57928C143.36 5.94184 144.065 6.78779 144.126 9.18467ZM133.954 16.4357 133.813 9.50694 133.652 9.28538 133.571 16.4357C133.531 18.8527 132.806 19.6786 131.759 20.0411L131.759 20.1418 135.827 20.1418 135.827 20.0411C134.659 19.6786 134.015 18.8125 133.954 16.4357ZM152.946 9.60765 153.128 5.47857 156.914 5.47857 156.914 5.63971 156.652 5.67999C154.88 5.94184 153.873 7.37191 153.047 9.64793ZM161.487 17.1205C161.487 19.034 161.869 19.8598 162.554 20.0411L162.554 20.1418 157.116 20.1418 157.116 20.0411C157.78 19.8598 158.163 19.034 158.163 17.1205L158.163 5.47857 161.487 5.47857 161.487 17.1205ZM166.522 5.47857 166.703 9.60765 166.623 9.64793C165.797 7.37191 164.77 5.94184 162.997 5.67999L162.755 5.63971 162.755 5.47857 166.522 5.47857ZM182.592 9.60765 182.773 5.47857 186.56 5.47857 186.56 5.63971 186.298 5.67999C184.526 5.94184 183.519 7.37191 182.693 9.64793ZM191.132 17.1205C191.132 19.034 191.515 19.8598 192.2 20.0411L192.2 20.1418 186.761 20.1418 186.761 20.0411C187.426 19.8598 187.809 19.034 187.809 17.1205L187.809 5.47857 191.132 5.47857 191.132 17.1205ZM196.168 5.47857 196.349 9.60765 196.268 9.64793C195.443 7.37191 194.415 5.94184 192.643 5.67999L192.401 5.63971 192.401 5.47857 196.168 5.47857ZM207.687 16.6371C207.687 19.034 208.05 19.8397 208.856 20.0411L208.856 20.1418 203.397 20.1418 203.397 20.0411C204.001 19.8598 204.364 19.034 204.364 17.1205L204.364 8.49985C204.364 6.58637 204.001 5.7807 203.397 5.57928L203.397 5.47857 207.687 5.47857 207.687 16.6371ZM215.2 18.1478C215.825 19.4369 216.227 19.9203 216.61 20.0411L216.61 20.1418 212.219 20.1418 209.802 13.3943C209.54 13.4145 209.258 13.4145 208.976 13.4145L208.916 13.2735C210.467 13.1325 211.595 12.0247 211.595 9.54722 211.595 7.06978 210.568 5.82099 208.856 5.63971L208.856 5.47857C213.065 5.49872 215.079 7.15035 215.079 9.54722 215.079 11.6621 213.206 13.0922 210.145 13.3742L210.145 13.4346C211.111 13.8173 212.199 14.1396 213.367 14.4215ZM235.522 16.8587C236.549 19.4369 236.992 19.8598 237.596 20.0411L237.596 20.1418 231.433 20.1418 231.433 20.0411C232.319 19.7793 232.722 18.893 232.017 17.04L231.292 15.0862 227.103 14.9855 227.183 14.8445 231.151 14.7438 228.472 7.59347 229.338 5.47857 231.07 5.47857ZM225.169 16.7177C224.444 18.6715 225.31 19.8195 226.619 20.0411L226.619 20.1418 222.268 20.1418 222.268 20.0411C223.014 19.8195 223.92 18.6715 224.625 16.9393L227.888 9.00339 227.948 9.2451ZM244.423 5.57928 244.423 5.47857 248.713 5.47857 248.713 20.1418 244.423 20.1418 244.423 20.0411C245.027 19.8598 245.39 19.034 245.39 17.1205L245.39 8.49985C245.39 6.58637 245.027 5.7807 244.423 5.57928ZM249.881 5.47857C255.622 5.55914 258.784 8.238 258.784 12.8102 258.784 17.3421 255.702 20.0008 249.881 20.1418L249.881 20.0008C253.064 19.88 255.279 17.9866 255.279 12.8102 255.279 7.5129 252.963 5.67999 249.881 5.63971L249.881 5.47857ZM266.457 5.57928 266.457 5.47857 270.747 5.47857 270.747 20.1418 266.457 20.1418 266.457 20.0411C267.061 19.8598 267.423 19.034 267.423 17.1205L267.423 8.49985C267.423 6.58637 267.061 5.7807 266.457 5.57928ZM277.031 9.64793C276.084 7.21077 274.815 5.96198 272.741 5.72028L271.915 5.63971 271.915 5.47857 276.93 5.47857 277.112 9.60765ZM272.761 12.4074C274.473 12.3671 275.259 11.6823 275.641 10.5342L275.742 10.5342 275.742 14.7841 275.641 14.7841C275.259 13.495 274.473 12.6491 272.761 12.6088L271.996 12.5886 271.996 12.4275ZM277.877 15.9322 277.958 15.9725 277.514 20.1418 271.915 20.1418 271.915 19.9807 273.144 19.88C274.956 19.739 276.81 18.1276 277.877 15.9322ZM295.72 5.57928 295.72 5.47857 300.01 5.47857 300.01 20.1418 295.72 20.1418 295.72 20.0411C296.324 19.8598 296.686 19.034 296.686 17.1205L296.686 8.49985C296.686 6.58637 296.324 5.7807 295.72 5.57928ZM301.178 5.47857C306.919 5.55914 310.081 8.238 310.081 12.8102 310.081 17.3421 306.999 20.0008 301.178 20.1418L301.178 20.0008C304.361 19.88 306.576 17.9866 306.576 12.8102 306.576 7.5129 304.26 5.67999 301.178 5.63971L301.178 5.47857ZM322.044 17.1205C322.044 19.034 322.386 19.8598 323.03 20.0411L323.03 20.1418 317.753 20.1418 317.753 20.0411C318.358 19.8598 318.72 19.034 318.72 17.1205L318.72 8.49985C318.72 6.58637 318.358 5.7807 317.753 5.57928L317.753 5.47857 323.01 5.47857 323.01 5.57928C322.366 5.7807 322.044 6.58637 322.044 8.49985L322.044 17.1205ZM330.763 12.8102C330.763 8.39914 333.885 5.539 338.115 5.2973L338.115 5.45843C335.799 5.7807 334.268 8.43942 334.268 12.8102 334.268 17.3421 335.799 20.0008 338.115 20.162L338.115 20.303C333.906 20.2022 330.763 17.3018 330.763 12.8102ZM339.525 5.2973C341.338 5.37787 343.292 5.86127 343.856 6.22382L343.956 10.0911 343.856 10.1112C342.647 7.19063 341.318 5.70013 339.525 5.45843L339.525 5.2973ZM339.525 20.303 339.525 20.162C340.995 19.8598 341.68 18.7319 341.68 16.3552 341.68 14.3208 341.116 13.5554 340.029 13.3943L340.029 13.3137 345.608 13.3137 345.608 13.3943C345.004 13.5957 344.641 14.4215 344.641 16.3552 344.641 18.6513 344.702 19.2354 344.903 20.1418L344.863 20.1821 343.09 19.3764C342.426 19.739 341.016 20.1821 339.525 20.303ZM357.51 17.1205C357.51 19.034 357.853 19.8598 358.497 20.0411L358.497 20.1418 353.22 20.1418 353.22 20.0411C353.824 19.8598 354.187 19.034 354.187 17.1205L354.187 8.49985C354.187 6.58637 353.824 5.7807 353.22 5.57928L353.22 5.47857 358.477 5.47857 358.477 5.57928C357.832 5.7807 357.51 6.58637 357.51 8.49985L357.51 17.1205ZM365.606 9.60765 365.787 5.47857 369.574 5.47857 369.574 5.63971 369.312 5.67999C367.539 5.94184 366.532 7.37191 365.706 9.64793ZM374.146 17.1205C374.146 19.034 374.529 19.8598 375.213 20.0411L375.213 20.1418 369.775 20.1418 369.775 20.0411C370.44 19.8598 370.822 19.034 370.822 17.1205L370.822 5.47857 374.146 5.47857 374.146 17.1205ZM379.181 5.47857 379.363 9.60765 379.282 9.64793C378.456 7.37191 377.429 5.94184 375.656 5.67999L375.415 5.63971 375.415 5.47857 379.181 5.47857ZM398.335 16.8587C399.362 19.4369 399.805 19.8598 400.409 20.0411L400.409 20.1418 394.246 20.1418 394.246 20.0411C395.132 19.7793 395.535 18.893 394.83 17.04L394.105 15.0862 389.915 14.9855 389.996 14.8445 393.964 14.7438 391.285 7.59347 392.151 5.47857 393.883 5.47857ZM387.982 16.7177C387.257 18.6715 388.123 19.8195 389.432 20.0411L389.432 20.1418 385.081 20.1418 385.081 20.0411C385.827 19.8195 386.733 18.6715 387.438 16.9393L390.701 9.00339 390.761 9.2451ZM407.236 5.57928 407.236 5.47857 412.513 5.47857 412.513 5.57928C411.868 5.7807 411.526 6.58637 411.526 8.49985L411.526 20.1418 407.236 20.1418 407.236 20.0411C407.84 19.8598 408.203 19.034 408.203 17.1205L408.203 8.49985C408.203 6.58637 407.84 5.7807 407.236 5.57928ZM418.535 15.5898 418.616 15.6301 418.072 20.1418 412.694 20.1418 412.694 19.9807 413.943 19.9001C415.575 19.7994 417.448 17.9866 418.535 15.5898ZM429.813 17.1205C429.813 19.034 430.156 19.8598 430.8 20.0411L430.8 20.1418 425.523 20.1418 425.523 20.0411C426.127 19.8598 426.49 19.034 426.49 17.1205L426.49 8.49985C426.49 6.58637 426.127 5.7807 425.523 5.57928L425.523 5.47857 430.78 5.47857 430.78 5.57928C430.136 5.7807 429.813 6.58637 429.813 8.49985L429.813 17.1205ZM450.538 5.47857 450.578 5.539 443.267 18.0471C442.783 18.8326 442.622 19.4369 442.622 19.7793L442.622 20.1418 438.412 20.1418 438.372 20.0814 446.912 5.47857 450.538 5.47857ZM445.522 5.63971 444.898 5.67999C442.159 5.90155 440.527 7.25105 439.137 10.9169L439.057 10.8766 439.52 5.47857 445.623 5.47857ZM443.891 20.0008 444.576 19.9404C447.093 19.7188 449.229 17.8456 450.417 14.7035L450.518 14.7438 450.034 20.1418 443.891 20.1418 443.891 20.0008ZM470.094 16.8587C471.121 19.4369 471.564 19.8598 472.169 20.0411L472.169 20.1418 466.005 20.1418 466.005 20.0411C466.891 19.7793 467.294 18.893 466.589 17.04L465.864 15.0862 461.675 14.9855 461.755 14.8445 465.723 14.7438 463.044 7.59347 463.91 5.47857 465.643 5.47857ZM459.741 16.7177C459.016 18.6715 459.882 19.8195 461.191 20.0411L461.191 20.1418 456.841 20.1418 456.841 20.0411C457.586 19.8195 458.492 18.6715 459.197 16.9393L462.46 9.00339 462.521 9.2451ZM477.928 9.60765 478.109 5.47857 481.896 5.47857 481.896 5.63971 481.634 5.67999C479.861 5.94184 478.854 7.37191 478.028 9.64793ZM486.468 17.1205C486.468 19.034 486.85 19.8598 487.535 20.0411L487.535 20.1418 482.097 20.1418 482.097 20.0411C482.762 19.8598 483.144 19.034 483.144 17.1205L483.144 5.47857 486.468 5.47857 486.468 17.1205ZM491.503 5.47857 491.684 9.60765 491.604 9.64793C490.778 7.37191 489.751 5.94184 487.978 5.67999L487.737 5.63971 487.737 5.47857 491.503 5.47857ZM503.023 17.1205C503.023 19.034 503.365 19.8598 504.01 20.0411L504.01 20.1418 498.733 20.1418 498.733 20.0411C499.337 19.8598 499.699 19.034 499.699 17.1205L499.699 8.49985C499.699 6.58637 499.337 5.7807 498.733 5.57928L498.733 5.47857 503.99 5.47857 503.99 5.57928C503.345 5.7807 503.023 6.58637 503.023 8.49985L503.023 17.1205ZM511.743 12.7901C511.743 8.39914 514.643 5.59943 518.651 5.2973L518.651 5.43829C516.597 5.80084 515.247 8.33871 515.247 12.7901 515.247 17.2213 516.597 19.7793 518.692 20.162L518.692 20.303C514.643 20.0008 511.743 17.181 511.743 12.7901ZM520.102 20.162C522.176 19.7793 523.546 17.2213 523.546 12.7901 523.546 8.33871 522.176 5.80084 520.102 5.43829L520.102 5.2973C524.13 5.59943 527.03 8.39914 527.03 12.7901 527.03 17.181 524.13 20.0008 520.102 20.303L520.102 20.162ZM539.033 5.47857 534.32 5.47857 534.32 5.57928C535.206 6.00226 535.831 6.6468 537.744 9.16453L546.123 20.1418 547.11 20.1418 547.11 15.9926ZM546.727 9.18467 546.869 13.7367 547.03 13.9583 547.09 9.18467C547.11 6.78779 547.815 5.94184 548.863 5.57928L548.863 5.47857 544.754 5.47857 544.754 5.57928C545.962 5.94184 546.667 6.78779 546.727 9.18467ZM536.556 16.4357 536.415 9.50694 536.254 9.28538 536.173 16.4357C536.133 18.8527 535.408 19.6786 534.36 20.0411L534.36 20.1418 538.429 20.1418 538.429 20.0411C537.261 19.6786 536.616 18.8125 536.556 16.4357Z" fill="#0F0F0F" transform="matrix(1.00139 0 0 1 444.597 443.647)"/></g></g></g></svg>